<?xml version="1.0" encoding="UTF-8"?><svg id="a" xmlns="http://www.w3.org/2000/svg" viewBox="0 0 263.31 70.33"><defs><style>.b{fill:#323c46;}.c{fill:#899584;}</style></defs><path class="b" d="M0,42.93V0h9.08v18.93h.57L25.09,0h10.88l-15.93,19.22,16.12,23.71h-10.86l-11.76-17.65-4.46,5.45v12.2H0Z"/><path class="b" d="M52.74,43.56c-3.26,0-6.07-.7-8.44-2.09-2.37-1.39-4.2-3.33-5.48-5.83s-1.93-5.39-1.93-8.69.64-6.24,1.93-8.73c1.29-2.49,3.11-4.44,5.48-5.83,2.37-1.39,5.18-2.09,8.44-2.09s6.07.7,8.44,2.09c2.37,1.39,4.2,3.33,5.48,5.83,1.29,2.49,1.93,5.4,1.93,8.73s-.64,6.19-1.93,8.69-3.11,4.44-5.48,5.83c-2.37,1.39-5.18,2.09-8.44,2.09ZM52.78,36.64c1.48,0,2.72-.42,3.71-1.27.99-.85,1.74-2,2.25-3.47.51-1.47.77-3.14.77-5.01s-.25-3.54-.77-5.01-1.26-2.63-2.25-3.48c-.99-.85-2.23-1.28-3.71-1.28s-2.75.43-3.76,1.28c-1.01.85-1.77,2.01-2.29,3.48s-.77,3.14-.77,5.01.25,3.54.77,5.01c.51,1.47,1.27,2.62,2.29,3.47,1.01.85,2.27,1.27,3.76,1.27Z"/><path class="b" d="M83.35,0v42.93h-8.93V0h8.93Z"/><path class="b" d="M90.64,42.93V0h8.93v16.14h.27c.39-.87.96-1.75,1.71-2.65s1.73-1.66,2.94-2.26c1.21-.61,2.71-.91,4.52-.91,2.35,0,4.51.61,6.5,1.83,1.98,1.22,3.57,3.06,4.76,5.51,1.19,2.45,1.78,5.52,1.78,9.21s-.58,6.62-1.73,9.09c-1.15,2.47-2.72,4.33-4.7,5.6-1.98,1.27-4.19,1.9-6.64,1.9-1.73,0-3.2-.29-4.41-.86s-2.2-1.3-2.97-2.17-1.36-1.76-1.76-2.65h-.4v5.16h-8.8ZM99.38,26.83c0,1.92.27,3.58.8,5.01.53,1.43,1.3,2.53,2.31,3.32,1.01.79,2.23,1.18,3.67,1.18s2.68-.4,3.69-1.21c1.01-.8,1.77-1.92,2.3-3.35.52-1.43.79-3.08.79-4.96s-.26-3.49-.78-4.91c-.52-1.41-1.28-2.52-2.28-3.31-1.01-.8-2.24-1.19-3.71-1.19s-2.68.38-3.68,1.15c-1,.77-1.76,1.86-2.3,3.27-.53,1.41-.8,3.07-.8,4.99Z"/><path class="b" d="M137.16,43.54c-2.05,0-3.89-.36-5.49-1.08-1.61-.72-2.88-1.79-3.81-3.21-.93-1.42-1.39-3.19-1.39-5.31,0-1.79.33-3.29.99-4.51s1.55-2.19,2.68-2.94c1.13-.74,2.42-1.3,3.87-1.68,1.45-.38,2.97-.64,4.56-.8,1.87-.2,3.38-.38,4.53-.56s1.98-.44,2.49-.79.78-.87.78-1.55v-.13c0-1.33-.42-2.35-1.25-3.08-.83-.73-2.01-1.09-3.53-1.09-1.61,0-2.89.35-3.84,1.06-.95.71-1.58,1.59-1.89,2.65l-8.26-.67c.42-1.96,1.24-3.65,2.47-5.08,1.23-1.43,2.82-2.54,4.77-3.31,1.95-.78,4.21-1.16,6.78-1.16,1.79,0,3.5.21,5.15.63,1.64.42,3.1,1.07,4.38,1.95s2.29,2.01,3.03,3.39c.74,1.38,1.11,3.02,1.11,4.94v21.72h-8.47v-4.47h-.25c-.52,1.01-1.21,1.89-2.08,2.65-.87.76-1.91,1.36-3.12,1.78-1.22.43-2.62.64-4.21.64ZM139.72,37.38c1.31,0,2.47-.26,3.48-.79s1.8-1.23,2.37-2.13c.57-.89.86-1.91.86-3.04v-3.42c-.28.18-.66.35-1.14.49-.48.15-1.02.28-1.62.4-.6.12-1.2.22-1.8.31-.6.09-1.15.17-1.64.24-1.05.15-1.96.4-2.75.73-.78.34-1.39.79-1.82,1.35-.43.57-.65,1.27-.65,2.11,0,1.22.44,2.14,1.33,2.78.89.64,2.02.95,3.39.95Z"/><path class="b" d="M162.23,42.93V10.73h8.66v5.62h.33c.59-2,1.57-3.51,2.96-4.54,1.38-1.03,2.98-1.54,4.78-1.54.45,0,.93.03,1.45.08.52.06.97.13,1.36.23v7.92c-.42-.13-1-.24-1.74-.34-.74-.1-1.42-.15-2.03-.15-1.31,0-2.48.28-3.51.85-1.03.57-1.84,1.35-2.43,2.36-.59,1.01-.89,2.17-.89,3.48v18.22h-8.93Z"/><path class="b" d="M199.52,43.56c-3.31,0-6.16-.67-8.54-2.02s-4.22-3.26-5.5-5.74-1.93-5.42-1.93-8.81.64-6.22,1.93-8.72c1.29-2.5,3.1-4.45,5.44-5.85,2.34-1.4,5.09-2.1,8.25-2.1,2.12,0,4.1.34,5.94,1.02s3.45,1.69,4.82,3.05c1.38,1.36,2.45,3.06,3.22,5.1.77,2.05,1.15,4.44,1.15,7.18v2.45h-27.19v-5.53h18.78c0-1.29-.28-2.42-.84-3.42-.56-.99-1.33-1.77-2.32-2.34-.98-.57-2.13-.85-3.43-.85s-2.55.31-3.6.93c-1.04.62-1.85,1.45-2.44,2.49-.59,1.04-.89,2.2-.9,3.47v5.26c0,1.59.3,2.97.89,4.13.59,1.16,1.44,2.05,2.53,2.68,1.09.63,2.38.94,3.88.94.99,0,1.9-.14,2.72-.42.83-.28,1.53-.7,2.12-1.26.59-.56,1.03-1.24,1.34-2.05l8.26.54c-.42,1.98-1.28,3.71-2.57,5.19s-2.96,2.62-4.99,3.44c-2.03.82-4.38,1.23-7.03,1.23Z"/><path class="b" d="M229.31,43.54c-2.05,0-3.88-.36-5.49-1.08s-2.88-1.79-3.8-3.21c-.93-1.42-1.39-3.19-1.39-5.31,0-1.79.33-3.29.99-4.51.66-1.22,1.55-2.19,2.68-2.94,1.13-.74,2.42-1.3,3.87-1.68,1.45-.38,2.97-.64,4.56-.8,1.87-.2,3.38-.38,4.53-.56,1.15-.17,1.98-.44,2.5-.79.52-.35.78-.87.78-1.55v-.13c0-1.33-.42-2.35-1.25-3.08-.83-.73-2.01-1.09-3.53-1.09-1.61,0-2.89.35-3.84,1.06s-1.58,1.59-1.89,2.65l-8.26-.67c.42-1.96,1.24-3.65,2.47-5.08,1.23-1.43,2.82-2.54,4.77-3.31,1.95-.78,4.21-1.16,6.78-1.16,1.79,0,3.5.21,5.15.63,1.64.42,3.1,1.07,4.38,1.95s2.29,2.01,3.03,3.39c.74,1.38,1.11,3.02,1.11,4.94v21.72h-8.47v-4.47h-.25c-.52,1.01-1.21,1.89-2.08,2.65-.87.76-1.91,1.36-3.12,1.78-1.22.43-2.62.64-4.21.64ZM231.87,37.38c1.31,0,2.47-.26,3.48-.79,1.01-.52,1.79-1.23,2.37-2.13.57-.89.86-1.91.86-3.04v-3.42c-.28.18-.66.35-1.14.49-.48.15-1.02.28-1.62.4-.6.12-1.2.22-1.8.31-.6.09-1.15.17-1.64.24-1.05.15-1.96.4-2.75.73-.78.34-1.39.79-1.82,1.35-.43.57-.65,1.27-.65,2.11,0,1.22.44,2.14,1.33,2.78s2.02.95,3.39.95Z"/><path class="b" d="M263.31,0v42.93h-8.93V0h8.93Z"/><path class="c" d="M118.67,70.08h-4.26l6.49-18.79h5.12l6.48,18.79h-4.26l-4.71-14.5h-.15l-4.72,14.5ZM118.4,62.69h10.06v3.1h-10.06v-3.1Z"/><path class="c" d="M134.76,70.08v-18.79h12.44v3.28h-8.47v4.48h7.64v3.28h-7.64v7.76h-3.97Z"/><path class="c" d="M149.87,70.08v-18.79h12.44v3.28h-8.47v4.48h7.64v3.28h-7.64v7.76h-3.97Z"/><path class="c" d="M182.25,60.68c0,2.05-.39,3.79-1.16,5.23-.77,1.44-1.83,2.53-3.16,3.29-1.33.76-2.82,1.13-4.48,1.13s-3.17-.38-4.5-1.14c-1.33-.76-2.38-1.86-3.15-3.29-.77-1.44-1.16-3.18-1.16-5.22s.39-3.79,1.16-5.23,1.82-2.53,3.15-3.29,2.83-1.13,4.5-1.13,3.15.38,4.48,1.13c1.33.76,2.38,1.85,3.16,3.29.77,1.44,1.16,3.18,1.16,5.23ZM178.22,60.68c0-1.33-.2-2.45-.59-3.36-.39-.91-.95-1.6-1.67-2.07-.72-.47-1.55-.71-2.51-.71s-1.8.24-2.51.71c-.72.47-1.27,1.16-1.67,2.07-.39.91-.59,2.03-.59,3.36s.2,2.45.59,3.36c.39.91.95,1.6,1.67,2.07s1.55.71,2.51.71,1.8-.24,2.51-.71,1.27-1.16,1.67-2.07c.39-.91.59-2.03.59-3.36Z"/><path class="c" d="M185.19,70.08v-18.79h3.97v15.52h8.06v3.28h-12.03Z"/><path class="c" d="M196.79,54.56v-3.28h15.43v3.28h-5.75v15.52h-3.93v-15.52h-5.75Z"/><path class="c" d="M214.78,70.08v-18.79h12.66v3.28h-8.69v4.48h8.04v3.28h-8.04v4.49h8.73v3.28h-12.7Z"/><path class="c" d="M230.61,70.08v-18.79h7.41c1.42,0,2.63.25,3.64.76,1.01.5,1.77,1.22,2.3,2.14.53.92.79,2,.79,3.24s-.27,2.32-.81,3.22c-.54.9-1.32,1.58-2.34,2.06s-2.25.72-3.69.72h-4.96v-3.19h4.32c.76,0,1.39-.1,1.89-.31.5-.21.88-.52,1.12-.94.25-.42.37-.93.37-1.55s-.12-1.15-.37-1.58c-.25-.43-.62-.75-1.13-.98-.5-.22-1.14-.33-1.9-.33h-2.68v15.54h-3.97ZM240.76,61.52l4.67,8.55h-4.39l-4.57-8.55h4.29Z"/><path class="c" d="M263.28,51.28v18.79h-3.43l-8.18-11.83h-.14v11.83h-3.97v-18.79h3.49l8.11,11.82h.17v-11.82h3.95Z"/></svg>