<svg width="264" height="70" viewBox="0 0 264 70" fill="none" xmlns="http://www.w3.org/2000/svg">
<path d="M0.100006 43V0.0999756H9.2V19H9.8L25.2 0.0999756H36.1L20.2 19.3L36.3 43H25.4L13.6 25.3L9.10001 30.8V43H0H0.100006Z" fill="#323C46"/>
<path d="M52.8 43.6C49.5 43.6 46.7 42.9 44.4 41.5C42 40.1 40.2 38.2 38.9 35.7C37.6 33.2 37 30.3 37 27C37 23.7 37.6 20.8 38.9 18.3C40.2 15.8 42 13.9 44.4 12.5C46.8 11.1 49.6 10.4 52.8 10.4C56 10.4 58.9 11.1 61.2 12.5C63.6 13.9 65.4 15.8 66.7 18.3C68 20.8 68.6 23.7 68.6 27C68.6 30.3 68 33.2 66.7 35.7C65.4 38.2 63.6 40.1 61.2 41.5C58.8 42.9 56 43.6 52.8 43.6ZM52.9 36.7C54.4 36.7 55.6 36.3 56.6 35.4C57.6 34.6 58.3 33.4 58.9 31.9C59.4 30.4 59.7 28.8 59.7 26.9C59.7 25 59.4 23.4 58.9 21.9C58.4 20.4 57.6 19.3 56.6 18.4C55.6 17.5 54.4 17.1 52.9 17.1C51.4 17.1 50.2 17.5 49.1 18.4C48.1 19.3 47.3 20.4 46.8 21.9C46.3 23.4 46 25 46 26.9C46 28.8 46.3 30.4 46.8 31.9C47.3 33.4 48.1 34.5 49.1 35.4C50.1 36.2 51.4 36.7 52.9 36.7Z" fill="#323C46"/>
<path d="M83.4 0V42.9H74.5V0H83.4Z" fill="#323C46"/>
<path d="M90.7 43V0.0999756H99.6V16.2H99.9C100.3 15.3 100.9 14.4 101.6 13.5C102.3 12.6 103.3 11.8 104.5 11.2C105.7 10.6 107.2 10.3 109 10.3C110.8 10.3 113.5 10.9 115.5 12.1C117.5 13.3 119.1 15.2 120.3 17.6C121.5 20.1 122.1 23.1 122.1 26.8C122.1 30.5 121.5 33.4 120.4 35.9C119.2 38.4 117.7 40.2 115.7 41.5C113.7 42.8 111.5 43.4 109.1 43.4C106.7 43.4 105.9 43.1 104.7 42.5C103.5 41.9 102.5 41.2 101.7 40.3C100.9 39.4 100.3 38.5 99.9 37.6H99.5V42.8H90.7V43ZM99.5 26.9C99.5 28.8 99.8 30.5 100.3 31.9C100.8 33.3 101.6 34.4 102.6 35.2C103.6 36 104.8 36.4 106.3 36.4C107.8 36.4 109 36 110 35.2C111 34.4 111.8 33.3 112.3 31.8C112.8 30.4 113.1 28.7 113.1 26.8C113.1 24.9 112.8 23.3 112.3 21.9C111.8 20.5 111 19.4 110 18.6C109 17.8 107.8 17.4 106.3 17.4C104.8 17.4 103.6 17.8 102.6 18.6C101.6 19.4 100.8 20.5 100.3 21.9C99.8 23.3 99.5 25 99.5 26.9Z" fill="#323C46"/>
<path d="M137.2 43.5999C135.1 43.5999 133.3 43.1999 131.7 42.4999C130.1 41.7999 128.8 40.6999 127.9 39.2999C127 37.8999 126.5 36.0999 126.5 33.9999C126.5 31.8999 126.8 30.6999 127.5 29.4999C128.2 28.2999 129.1 27.2999 130.2 26.5999C131.3 25.8999 132.6 25.2999 134.1 24.8999C135.5 24.4999 137.1 24.2999 138.7 24.0999C140.6 23.8999 142.1 23.6999 143.2 23.4999C144.3 23.2999 145.2 23.0999 145.7 22.6999C146.2 22.2999 146.5 21.7999 146.5 21.0999C146.5 19.5999 146.1 18.5999 145.3 17.8999C144.5 17.1999 143.3 16.7999 141.8 16.7999C140.3 16.7999 138.9 17.1999 138 17.8999C137 18.5999 136.4 19.4999 136.1 20.5999L127.8 19.8999C128.2 17.8999 129 16.1999 130.3 14.7999C131.5 13.3999 133.1 12.2999 135.1 11.4999C137 10.6999 139.3 10.2999 141.9 10.2999C144.5 10.2999 145.4 10.4999 147 10.8999C148.6 11.2999 150.1 11.9999 151.4 12.7999C152.7 13.5999 153.7 14.7999 154.4 16.1999C155.1 17.5999 155.5 19.1999 155.5 21.0999V42.7999H147V38.2999H146.7C146.2 39.2999 145.5 40.1999 144.6 40.9999C143.7 41.7999 142.7 42.3999 141.5 42.7999C140.3 43.1999 138.9 43.3999 137.3 43.3999L137.2 43.5999ZM139.8 37.3999C141.1 37.3999 142.3 37.0999 143.3 36.5999C144.3 36.0999 145.1 35.3999 145.7 34.4999C146.3 33.5999 146.6 32.5999 146.6 31.4999V28.0999C146.3 28.2999 145.9 28.3999 145.5 28.5999C145 28.6999 144.5 28.8999 143.9 28.9999C143.3 29.0999 142.7 29.1999 142.1 29.2999C141.5 29.2999 141 29.4999 140.5 29.4999C139.5 29.6999 138.5 29.8999 137.8 30.1999C137 30.4999 136.4 30.9999 136 31.5999C135.6 32.1999 135.4 32.8999 135.4 33.6999C135.4 34.8999 135.8 35.7999 136.7 36.4999C137.6 37.0999 138.7 37.4999 140.1 37.4999L139.8 37.3999Z" fill="#323C46"/>
<path d="M162.3 43V10.8H171V16.4H171.3C171.9 14.4 172.9 12.9 174.3 11.9C175.7 10.9 177.3 10.4 179.1 10.4C180.9 10.4 180 10.4 180.5 10.4C181 10.4 181.5 10.5 181.9 10.6V18.5C181.5 18.4 180.9 18.3 180.2 18.2C179.5 18.2 178.8 18.1 178.2 18.1C176.9 18.1 175.7 18.4 174.7 18.9C173.7 19.5 172.9 20.3 172.3 21.3C171.7 22.3 171.4 23.5 171.4 24.8V43H162.5H162.3Z" fill="#323C46"/>
<path d="M199.6 43.6C196.3 43.6 193.4 42.9 191.1 41.6C188.7 40.3 186.9 38.3 185.6 35.9C184.3 33.5 183.7 30.5 183.7 27.1C183.7 23.7 184.3 20.9 185.6 18.4C186.9 15.9 188.7 13.9 191 12.6C193.3 11.2 196.1 10.5 199.2 10.5C202.3 10.5 203.3 10.8 205.1 11.5C206.9 12.2 208.5 13.2 209.9 14.5C211.3 15.9 212.3 17.6 213.1 19.6C213.9 21.6 214.3 24 214.3 26.8V29.3H187.1V23.8H205.9C205.9 22.5 205.6 21.4 205.1 20.4C204.5 19.4 203.8 18.6 202.8 18.1C201.8 17.5 200.7 17.3 199.4 17.3C198.1 17.3 196.8 17.6 195.8 18.2C194.8 18.8 193.9 19.7 193.4 20.7C192.8 21.7 192.5 22.9 192.5 24.2V29.5C192.5 31.1 192.8 32.5 193.4 33.6C194 34.8 194.8 35.7 195.9 36.3C197 36.9 198.3 37.2 199.8 37.2C201.3 37.2 201.7 37.1 202.5 36.8C203.3 36.5 204 36.1 204.6 35.5C205.2 34.9 205.6 34.3 205.9 33.4L214.2 33.9C213.8 35.9 212.9 37.6 211.6 39.1C210.3 40.6 208.6 41.7 206.6 42.5C204.6 43.3 202.2 43.7 199.6 43.7V43.6Z" fill="#323C46"/>
<path d="M229.4 43.5999C227.3 43.5999 225.5 43.1999 223.9 42.4999C222.3 41.7999 221 40.6999 220.1 39.2999C219.2 37.8999 218.7 36.0999 218.7 33.9999C218.7 31.8999 219 30.6999 219.7 29.4999C220.4 28.2999 221.3 27.2999 222.4 26.5999C223.5 25.8999 224.8 25.2999 226.3 24.8999C227.7 24.4999 229.3 24.2999 230.9 24.0999C232.8 23.8999 234.3 23.6999 235.4 23.4999C236.5 23.2999 237.4 23.0999 237.9 22.6999C238.4 22.3999 238.7 21.7999 238.7 21.0999C238.7 19.5999 238.3 18.5999 237.5 17.8999C236.7 17.1999 235.5 16.7999 234 16.7999C232.5 16.7999 231.1 17.1999 230.2 17.8999C229.3 18.5999 228.6 19.4999 228.3 20.5999L220 19.8999C220.4 17.8999 221.2 16.1999 222.5 14.7999C223.7 13.3999 225.3 12.2999 227.3 11.4999C229.3 10.6999 231.5 10.2999 234.1 10.2999C236.7 10.2999 237.6 10.4999 239.2 10.8999C240.8 11.2999 242.3 11.9999 243.6 12.7999C244.9 13.5999 245.9 14.7999 246.6 16.1999C247.3 17.5999 247.7 19.1999 247.7 21.0999V42.7999H239.2V38.2999H238.9C238.4 39.2999 237.7 40.1999 236.8 40.9999C235.9 41.7999 234.9 42.3999 233.7 42.7999C232.5 43.1999 231.1 43.3999 229.5 43.3999L229.4 43.5999ZM232 37.3999C233.3 37.3999 234.5 37.0999 235.5 36.5999C236.5 36.0999 237.3 35.3999 237.9 34.4999C238.5 33.5999 238.8 32.5999 238.8 31.4999V28.0999C238.5 28.2999 238.1 28.3999 237.7 28.5999C237.2 28.6999 236.7 28.8999 236.1 28.9999C235.5 29.0999 234.9 29.1999 234.3 29.2999C233.7 29.2999 233.2 29.4999 232.7 29.4999C231.7 29.6999 230.7 29.8999 230 30.1999C229.2 30.4999 228.6 30.9999 228.2 31.5999C227.8 32.1999 227.5 32.8999 227.5 33.6999C227.5 34.8999 227.9 35.7999 228.8 36.4999C229.7 37.1999 230.8 37.4999 232.2 37.4999L232 37.3999Z" fill="#323C46"/>
<path d="M263.4 0V42.9H254.5V0H263.4Z" fill="#323C46"/>
<path d="M49.1 69.2001V67.3001L56.9 56.4001H49.1V53.7001H61V55.6001L53.2 66.5001H61V69.2001H49.1Z" fill="#899584"/>
<path d="M73.1 53.6H76.4V63.7C76.4 64.8 76.1 65.8 75.6 66.7C75.1 67.6 74.3 68.2 73.3 68.7C72.3 69.2 71.2 69.4 69.9 69.4C68.6 69.4 67.5 69.2 66.5 68.7C65.5 68.2 64.8 67.6 64.2 66.7C63.7 65.9 63.4 64.9 63.4 63.7V53.6H66.7V63.4C66.7 64 66.8 64.5 67.1 65C67.4 65.5 67.7 65.8 68.2 66.1C68.7 66.4 69.2 66.5 69.9 66.5C70.6 66.5 71.1 66.4 71.6 66.1C72.1 65.8 72.4 65.5 72.7 65C73 64.5 73.1 64 73.1 63.4V53.6ZM67.7 52C67.3 52 66.9 51.8 66.6 51.5C66.3 51.2 66.1 50.8 66.1 50.4C66.1 50 66.3 49.6 66.6 49.3C66.9 49 67.3 48.9 67.7 48.9C68.1 48.9 68.5 49 68.8 49.3C69.1 49.6 69.3 50 69.3 50.4C69.3 50.8 69.1 51.2 68.8 51.5C68.5 51.8 68.1 52 67.7 52ZM72.3 52C71.9 52 71.5 51.8 71.2 51.5C70.9 51.2 70.7 50.8 70.7 50.4C70.7 50 70.9 49.6 71.2 49.3C71.5 49 71.9 48.9 72.3 48.9C72.7 48.9 73.1 49 73.4 49.3C73.7 49.6 73.9 50 73.9 50.4C73.9 50.8 73.7 51.2 73.4 51.5C73.1 51.8 72.7 52 72.3 52Z" fill="#899584"/>
<path d="M79.1 69.2001V53.7001H85.2C86.4 53.7001 87.4 53.9001 88.2 54.3001C89 54.7001 89.7 55.3001 90.1 56.1001C90.5 56.9001 90.8 57.8001 90.8 58.8001C90.8 59.8001 90.6 60.7001 90.1 61.5001C89.7 62.2001 89 62.8001 88.2 63.2001C87.4 63.6001 86.3 63.8001 85.1 63.8001H81V61.2001H84.6C85.2 61.2001 85.7 61.2001 86.2 60.9001C86.6 60.7001 86.9 60.5001 87.1 60.1001C87.3 59.8001 87.4 59.3001 87.4 58.8001C87.4 58.3001 87.3 57.8001 87.1 57.5001C86.9 57.1001 86.6 56.9001 86.2 56.7001C85.8 56.5001 85.3 56.4001 84.6 56.4001H82.4V69.3001H79.1V69.2001ZM87.5 62.1001L91.4 69.2001H87.8L84 62.1001H87.5Z" fill="#899584"/>
<path d="M96.4 53.6V69.1H93.1V53.6H96.4Z" fill="#899584"/>
<path d="M112.8 59.1001H109.5C109.5 58.7001 109.3 58.3001 109.1 58.0001C108.9 57.7001 108.7 57.4001 108.4 57.1001C108.1 56.8001 107.8 56.7001 107.4 56.6001C107 56.5001 106.6 56.4001 106.2 56.4001C105.4 56.4001 104.7 56.6001 104.1 57.0001C103.5 57.4001 103 58 102.7 58.7C102.4 59.5 102.2 60.4001 102.2 61.5001C102.2 62.6001 102.4 63.5 102.7 64.3C103 65.1 103.5 65.6001 104.1 66.0001C104.7 66.4001 105.4 66.6001 106.2 66.6001C107 66.6001 107 66.6001 107.4 66.4001C107.8 66.2001 108.1 66.1001 108.4 65.9001C108.7 65.7001 108.9 65.4001 109.1 65.1001C109.3 64.8001 109.4 64.4001 109.5 64.0001H112.8C112.8 64.7001 112.5 65.4001 112.2 66.1001C111.9 66.8001 111.4 67.3001 110.8 67.9001C110.2 68.4001 109.5 68.8001 108.8 69.1001C108 69.4001 107.1 69.6001 106.1 69.6001C105.1 69.6001 103.5 69.3 102.4 68.7C101.3 68.1 100.4 67.2001 99.8 66.0001C99.2 64.8001 98.9 63.4 98.9 61.7C98.9 60 99.2 58.6001 99.9 57.4001C100.6 56.2001 101.4 55.3 102.5 54.7C103.6 54.1 104.8 53.8 106.2 53.8C107.6 53.8 107.9 53.9 108.7 54.2C109.5 54.5 110.2 54.8 110.8 55.3C111.4 55.8 111.9 56.4001 112.3 57.1001C112.7 57.8001 112.9 58.6001 113 59.5001L112.8 59.1001Z" fill="#899584"/>
<path d="M115.2 69.2001V53.7001H118.5V60.1001H125.2V53.7001H128.5V69.2001H125.2V62.8001H118.5V69.2001H115.2Z" fill="#899584"/>
<path d="M138.3 60.1V62.7H131.2V60.1H138.3Z" fill="#899584"/>
<path d="M143.8 69.2001H140.3L145.7 53.7001H149.9L155.3 69.2001H151.8L147.9 57.2001H147.8L143.9 69.2001H143.8ZM143.6 63.0001H151.9V65.6001H143.6V63.0001Z" fill="#899584"/>
<path d="M157.1 69.2001V53.7001H167.4V56.4001H160.4V60.1001H166.7V62.8001H160.4V69.2001H157.1Z" fill="#899584"/>
<path d="M169.6 69.2001V53.7001H179.9V56.4001H172.9V60.1001H179.2V62.8001H172.9V69.2001H169.6Z" fill="#899584"/>
<path d="M196.4 61.4C196.4 63.1 196.1 64.5 195.4 65.7C194.7 66.9 193.9 67.8 192.8 68.4C191.7 69 190.5 69.3 189.1 69.3C187.7 69.3 186.5 69 185.4 68.4C184.3 67.8 183.4 66.9 182.8 65.7C182.2 64.5 181.8 63.1 181.8 61.4C181.8 59.7 182.1 58.3 182.8 57.1C183.5 55.9 184.3 55 185.4 54.4C186.5 53.8 187.7 53.5 189.1 53.5C190.5 53.5 191.7 53.8 192.8 54.4C193.9 55 194.8 55.9 195.4 57.1C196 58.3 196.4 59.7 196.4 61.4ZM193.1 61.4C193.1 60.3 192.9 59.4 192.6 58.6C192.3 57.8 191.8 57.3 191.2 56.9C190.6 56.5 189.9 56.3 189.1 56.3C188.3 56.3 187.6 56.5 187 56.9C186.4 57.3 185.9 57.9 185.6 58.6C185.3 59.4 185.1 60.3 185.1 61.4C185.1 62.5 185.3 63.4 185.6 64.2C185.9 65 186.4 65.5 187 65.9C187.6 66.3 188.3 66.5 189.1 66.5C189.9 66.5 190.6 66.3 191.2 65.9C191.8 65.5 192.3 64.9 192.6 64.2C192.9 63.4 193.1 62.5 193.1 61.4Z" fill="#899584"/>
<path d="M198.8 69.2001V53.7001H202.1V66.5001H208.8V69.2001H198.9H198.8Z" fill="#899584"/>
<path d="M208.4 56.3V53.6H221.2V56.3H216.4V69.1H213.2V56.3H208.4Z" fill="#899584"/>
<path d="M223.3 69.2001V53.7001H233.8V56.4001H226.6V60.1001H233.2V62.8001H226.6V66.5001H233.8V69.2001H223.3Z" fill="#899584"/>
<path d="M236.4 69.2001V53.7001H242.5C243.7 53.7001 244.7 53.9001 245.5 54.3001C246.3 54.7001 247 55.3001 247.4 56.1001C247.8 56.9001 248.1 57.8001 248.1 58.8001C248.1 59.8001 247.9 60.7001 247.4 61.5001C247 62.2001 246.3 62.8001 245.5 63.2001C244.7 63.6001 243.6 63.8001 242.4 63.8001H238.3V61.2001H241.9C242.5 61.2001 243 61.2001 243.5 60.9001C243.9 60.7001 244.2 60.5001 244.4 60.1001C244.6 59.8001 244.7 59.3001 244.7 58.8001C244.7 58.3001 244.6 57.8001 244.4 57.5001C244.2 57.2001 243.9 56.9001 243.5 56.7001C243.1 56.5001 242.6 56.4001 241.9 56.4001H239.7V69.3001H236.4V69.2001ZM244.8 62.1001L248.7 69.2001H245.1L241.3 62.1001H244.8Z" fill="#899584"/>
<path d="M263.4 53.6V69.1H260.6L253.8 59.3H253.7V69.1H250.4V53.6H253.3L260 63.4H260.1V53.6H263.4Z" fill="#899584"/>
</svg>
